<svg width="300" height="100" viewBox="0 0 300 100" fill="none" xmlns="http://www.w3.org/2000/svg">
<rect width="300" height="100" fill="#F8F9FA"/>
<path d="M204.5 26V18H253V29H221.5L253 74.5V81.5H204.5V70.5H236" stroke="#4B5563"/>
<path d="M192.094 17V81H178.562V17H192.094Z" fill="#0F172A"/>
<path d="M118 74.5V81.5H166.5V70.5H135L166.5 26V18H118V29H149.5" stroke="#4B5563"/>
<mask id="path-4-outside-1_78_2" maskUnits="userSpaceOnUse" x="46" y="16" width="66" height="66" fill="black">
<rect fill="white" x="46" y="16" width="66" height="66"/>
<path d="M62.5938 81H48.0938L70.1875 17H87.625L109.688 81H95.1875L79.1563 31.625H78.6562L62.5938 81ZM61.6875 55.8437H95.9375V66.4062H61.6875V55.8437Z"/>
</mask>
<path d="M62.5938 81H48.0938L70.1875 17H87.625L109.688 81H95.1875L79.1563 31.625H78.6562L62.5938 81ZM61.6875 55.8437H95.9375V66.4062H61.6875V55.8437Z" fill="#0F172A"/>
<path d="M62.5938 81V82H63.32L63.5447 81.3094L62.5938 81ZM48.0938 81L47.1485 80.6737L46.6906 82H48.0938V81ZM70.1875 17V16H69.4748L69.2422 16.6737L70.1875 17ZM87.625 17L88.5704 16.6741L88.338 16H87.625V17ZM109.688 81V82H111.09L110.633 80.6741L109.688 81ZM95.1875 81L94.2364 81.3088L94.4608 82H95.1875V81ZM79.1563 31.625L80.1074 31.3162L79.883 30.625H79.1563V31.625ZM78.6562 31.625V30.625H77.93L77.7053 31.3156L78.6562 31.625ZM61.6875 55.8438V54.8438H60.6875V55.8438H61.6875ZM95.9375 55.8438H96.9375V54.8438H95.9375V55.8438ZM95.9375 66.4062V67.4062H96.9375V66.4062H95.9375ZM61.6875 66.4062H60.6875V67.4062H61.6875V66.4062ZM62.5938 81V80H48.0938V81V82H62.5938V81ZM48.0938 81L49.039 81.3263L71.1328 17.3263L70.1875 17L69.2422 16.6737L47.1485 80.6737L48.0938 81ZM70.1875 17V18H87.625V17V16H70.1875V17ZM87.625 17L86.6796 17.3259L108.742 81.3259L109.688 81L110.633 80.6741L88.5704 16.6741L87.625 17ZM109.688 81V80H95.1875V81V82H109.688V81ZM95.1875 81L96.1386 80.6912L80.1074 31.3162L79.1563 31.625L78.2051 31.9338L94.2364 81.3088L95.1875 81ZM79.1563 31.625V30.625H78.6562V31.625V32.625H79.1563V31.625ZM78.6562 31.625L77.7053 31.3156L61.6428 80.6906L62.5938 81L63.5447 81.3094L79.6072 31.9344L78.6562 31.625ZM61.6875 55.8438V56.8438H95.9375V55.8438V54.8438H61.6875V55.8438ZM95.9375 55.8438H94.9375V66.4062H95.9375H96.9375V55.8438H95.9375ZM95.9375 66.4062V65.4062H61.6875V66.4062V67.4062H95.9375V66.4062ZM61.6875 66.4062H62.6875V55.8438H61.6875H60.6875V66.4062H61.6875Z" fill="#F8F9FA" mask="url(#path-4-outside-1_78_2)"/>
</svg>
